<?xml version="1.0" encoding="utf-8"?>
<!-- Generator: Adobe Illustrator 16.0.0, SVG Export Plug-In . SVG Version: 6.00 Build 0)  -->
<!DOCTYPE svg PUBLIC "-//W3C//DTD SVG 1.1//EN" "http://www.w3.org/Graphics/SVG/1.1/DTD/svg11.dtd">
<svg version="1.1" id="Layer_1" xmlns="http://www.w3.org/2000/svg" xmlns:xlink="http://www.w3.org/1999/xlink" x="0px" y="0px"
	 width="40px" height="40px" viewBox="0 0 40 40" enable-background="new 0 0 40 40" xml:space="preserve">
<g>
	<path fill="#FFFFFF" d="M38.38,6.437C31.046,1.584,18.75,3.074,11.085,5.923c-6.49,2.416-14.792,9.582-7.444,16.454
		c-4.109-5.399,2.85-8.815,8.878-11.018c4.145-1.516,10.483-2.111,13.737-2.038c4.461,0.108,9.073,0.944,7.808,3.977
		C35.36,12.222,41.449,8.494,38.38,6.437z"/>
	<path fill="#FFFFFF" d="M29.755,16.33c-1.811-1.356-5.186-1.983-10.752-1.395c-3.415,0.304-6.74,1.233-10.246,2.941
		c-3.443,1.672-5.986,3.935-4.938,6.632C4.394,26.1,5.417,27.677,8.103,30.1c0.233,0.174,0.472,0.345,0.713,0.516
		c-0.062,0.428-0.018,0.878,0.174,1.342c0.35,0.902,1.075,1.908,2.539,3.323c1.565,1.23,3.19,2.516,5.097-0.021
		c4.506-6.213,6.227-7.818,6.996-8.36c-1.166-0.426-3.08-0.642-5.188-0.556c-1.486,0.068-5.029,0.347-7.288,1.64
		c-1.346,0.684-2.148,1.575-2.32,2.567c-0.71-0.678-1.2-1.302-1.482-1.917c-0.393-0.858-0.41-1.742-0.01-2.515
		c1.019-1.979,5.439-3.606,8.874-4.134c7.774-1.198,8.657,1.206,8.714,1.255C30.046,18.908,31.869,17.9,29.755,16.33z"/>
</g>
<g>
</g>
<g>
</g>
<g>
</g>
<g>
</g>
<g>
</g>
<g>
</g>
</svg>
